<?xml version="1.0" encoding="utf-8"?>
<!-- Generator: Adobe Illustrator 26.0.0, SVG Export Plug-In . SVG Version: 6.00 Build 0)  -->
<svg version="1.1" id="Capa_1" xmlns="http://www.w3.org/2000/svg" xmlns:xlink="http://www.w3.org/1999/xlink" x="0px" y="0px"
	 viewBox="0 0 2056.1 801.2" style="enable-background:new 0 0 2056.1 801.2;" xml:space="preserve">
<style type="text/css">
	.st0{fill:#FF0000;}
	.st1{fill:#FFFFFF;}
	.st2{fill:#2F20C6;}
	.st3{fill:#827C7C;}
	.st4{fill:url(#SVGID_1_);}
	.st5{fill:url(#SVGID_00000021081593676316168800000009476008834234421425_);}
	.st6{fill:url(#SVGID_00000044153208048384089890000005879787375940711589_);}
	.st7{fill:#C0C0C0;}
	.st8{fill:#E30613;}
	.st9{fill:url(#SVGID_00000040573725707067783510000017335975840863069070_);}
	.st10{fill:#BE1622;}
	.st11{fill:#616161;}
	.st12{fill:#173851;}
	.st13{fill:#393939;}
	.st14{fill:#F4F6F7;}
	.st15{fill:#968F8F;}
	.st16{fill:#3AAA35;stroke:#3AAA35;stroke-width:3;stroke-miterlimit:10;}
	.st17{fill:#F4EFEF;stroke:#FFFFFF;stroke-width:3;stroke-miterlimit:10;}
	.st18{fill:#E94E1B;stroke:#E94E1B;stroke-miterlimit:10;}
	.st19{fill:none;}
	.st20{font-family:'ArialMT';}
	.st21{font-size:12px;}
</style>
<path class="st0" d="M753,223.9c-0.2-3-2.4-0.4-3.5-0.4c-6.9,0.1-13.8,0.9-20.7,0.5c-21.6-1.3-41.9-7.7-61.5-16.2
	c-18.4-8-36.1-17.5-52.5-29.1c-2.3-1.6-4.4-2.5-6.5,0.1c-1.5,1.8-2.8,1.2-4.4,0.1c-6.6-4.3-12.7-9.2-18.2-14.9
	c-1.9-1.9-3.2-3.1-5.3-0.2c-0.2,0.3-0.5,0.6-0.8,0.9l-17.2,19.3c3,0.8,4.1,1.7,2.5,4.9c-1.5,3.1-2.5,6.6-4,10.9
	c4.1-2.8,5.1-6.6,7.3-9.4c1-1.2,1.8-2.3,3.2-0.6c4,4.9,9.3,8.3,14.2,12.2c1.8,1.5,2.2,2.6,0.9,4.6c-2.9,4.4-5.7,9-7.8,13.7
	c-11.8,25.8-19.3,52.7-17.6,81.5c0.1,2.1,0.7,3.9,1.6,5.8c6.4,14,14.8,26.8,24.8,38.5c4.4,5.1,8.7,10.3,13.3,15.2
	c3.1,3.3,6,7.3,10.4,8.6c6.6,2.1,12.9,4.8,19,7.9c2.5,1.3,4.2,1.9,4.8-1.8c0.3-1.7,2-3.3,3.6-3.4c7.7-0.3,15.3-5.2,23-0.1
	c1.3,0.9,2.3,1,3.5-0.5c3.9-5.1,8-9.9,11.9-14.9c9.2-11.6,17-24.4,27.1-35.4c1.9-2.1,4-4.3,4.8-7.8c-9.3,0-18.2,0.3-27.2-0.1
	c-15.8-0.6-31.7-1.7-47.1-5.7c-13.6-3.5-23.2-13.1-21.1-30.3c2.2-17.9,10-33.1,21.1-47c1.5-1.9,3.3-3.6,5.3-5.9
	c0.2,2.3-0.9,2.9-1.5,3.7c-10,13.1-16.4,27.7-19.6,43.8c-3.5,17.8,3,27.6,20.8,31.5c0.2,0,0.3,0.1,0.5,0.1c22.9,3.8,46,6,69.2,6.3
	c1.4,0,2.8,0.3,3.9-1.1c2.4-3.1,4.9-6.1,7.3-9.2c-0.2-0.4-0.3-0.8-0.5-1.2c-4.7,5.6-10.4,5.9-16.7,5.1c-21-2.8-42-5.4-63-7.8
	c-11.1-1.3-15.4-6.5-13-17.5c4-18.6,11.8-35.6,23.1-50.7c4.4-5.9,10.1-10.4,18.5-7.5c0.5,0.1,1.3,0.1,1.4-0.9
	c-0.2-1.1-1.3-1.2-2.1-1.5c-6.4-2.6-12.8-5.1-19.5-6.6c-23.3-5.1-44.1,5-53.5,26.1c-3.3,7.4-4.7,15.2-4.9,23.3
	c-0.3,15.7,3.9,30.4,9.8,44.7c0.7,1.6,2.2,3.1,1.2,5.6c-2.9-3.5-4.2-7.5-5.7-11.4c-7.2-19-10.7-38.4-4.3-58.4
	c6-19,21.6-31.6,40.2-33.4c16.1-1.5,30.8,3.7,44.7,10.6c20.9,10.4,42.9,13.4,65.7,12.2c2.7-0.1,5.4-0.4,7.9-1
	C752.9,229.3,753.2,226.2,753,223.9z M572,182c2.3-5.6,5.7-10.3,12.3-13.4C581.3,175,576.6,178.4,572,182z M578.2,190.6
	c4.2-5.2,7.3-10.9,12.6-15.1C590.1,181.1,583.1,189.6,578.2,190.6z M587.8,197.7c2.3-6.5,6.1-11.9,12-17.3
	C596.9,188,593.2,193.5,587.8,197.7z"/>
<path class="st1" d="M489.1,505.7c-2.3-1.1-4-0.1-5.7,0.6c-10.7,4.1-21.9,6.6-33.2,8.2c-6.7,0.9-12.9-3.1-13.9-9.7
	c-1.9-12.8-1.1-25.7,1.8-38.3c1.4-6,6.1-9.4,11.9-10.9c13.6-3.6,27.3-5.5,41.4-4.5c-16.8-4.3-33.6-4-50.5-0.6
	c-0.6-9.5,6.1-16.1,16.3-16c12.9,0.1,25.9,0.3,38.8,0.3c12.5,0,25.1,0.7,37.6-0.1c1.2-0.1,2.3-0.2,3.5-1c-8-0.6-16-1.2-24.1-1.8
	c-4.7-0.4-9.4-0.8-14.1-1.1c-1.7-0.1-3.1-0.2-2.5-2.7c3.1-13.4,5.3-27.1,11.2-39.7c7.9-16.7,21.9-23.8,39.7-24.2
	c8.2-0.2,16.3,0,24.5,0c1.8,0,3.2,0.4,4.4,2c3.6,4.8,7.4,9.6,11.4,14.1c1.8,2,1.5,2.9-0.3,4.8c-4.3,4.5-9.5,8.1-13.4,13
	c-3,3.8-6.2,7.5-8.5,11.9c-3.3,6.2-8.4,10-14.7,12.4c-6,2.3-9.1,7-9.9,13.1c-1.2,9.1-3.7,16.9-12.2,22.6c-8.3,5.5-9.9,15.9-6,27.5
	c0-2,0.1-3.7,0-5.3c-0.5-9.3,2.9-16.5,11.3-21c6.8-3.6,10.6-9.4,11.5-16.8c0.9-8.3,5.1-13.3,13-15.8c4.5-1.4,8.1-4.4,10.5-8.3
	c5.8-9.7,14.5-16.8,21.8-25c7.4-8.2,16-8.9,25.6-5c3.5,1.4,6.9,3.1,10.2,4.9c10.2,5.5,21.6,8.3,32.1,13.2c5.4,2.5,10.6,5.5,15.5,8.8
	c6.2,4.3,10.5,10.3,12.6,17.7c3.7,13-1.2,22-15,27.9c0.8,1.2,2,0.5,3,0.4c0.9-0.1,1.8-0.3,3-0.5c-1.2,7.2,2.5,15.3-4.8,20.6
	c-5.9,4.3-12.1,2.3-19-0.7c6.9-3.1,11-7.9,13-14.4c3.3-10.6-0.7-24.2-12.3-32c-11.2-7.5-22.7-14.5-33.8-22c-4-2.7-8.7-4.3-14.2-4.2
	c1.9,2.6,4.9,2.6,6.9,4.2c4.2,3.1,7.9,6.6,11.6,10.3c5.5,5.6,11.4,10.6,18.3,14.4c9.9,5.5,17.3,13.1,16.8,25.7
	c-0.3,7.9-6,14.8-13.1,16.5c-1.5,0.4-2.2,0.6-3-1.4c-6.5-16-18.6-26.6-33.5-34.4c-3.3-1.7-6.7-3.3-10.1-4.9
	c-1.8-0.9-3.7-1.4-5.9-0.6c11,9.2,22.8,17.2,32.1,28.1c5.7,6.7,10.5,13.7,9.3,23.2c-0.7,5.5-4.7,10.1-9.9,11.3
	c-2.1,0.5-3.6,0.6-4.6-2.2c-2.1-5.5-5.8-9.7-11.1-12.8c-8-4.7-14.9-11-22.2-16.6c-4.1-3.1-8.5-5.6-14.2-4.9
	c14.2,10,24.6,23.7,37.8,34.3c3.2,2.5,3.6,9.2,0.9,12.7c-7.8,10.1-17.8,16.4-30.7,17.9c-2.9,0.4-4.9,0.2-3.1-4.2
	c-4,1.8-6.1,4.9-9,6.8c-6.5,4.3-12.7,9.5-21.4,7.9c-2.8-0.5-5.5-1.4-7.6-3.4c-3.7-3.5-3.7-5.5,0-8.9c3.5-3.1,5.6-7,7.3-11.4
	c2.7-7.2,5.4-8.3,12-4.8c4.2,2.2,8.8,3.3,13.2,4.6c1.1,0.3,2.2,0.1,3.1-1.6c-7-1.3-12.8-5-18.9-8c-4.3-2.1-9.9-0.5-11.5,4.1
	c-5,14-16.3,18.2-29.2,21.1c-16,3.6-31.8,8.2-47.8,11.9c-11.5,2.7-19.8-1.6-25.2-12.1c-2.5-4.7-1.2-8,3.9-9.2
	C462.3,518.5,475.9,513.2,489.1,505.7z M587.8,516.9c-2-4.4-6.1-2.1-9.3-2.8C581,517.1,585.6,513.1,587.8,516.9z"/>
<path class="st2" d="M502.2,368c-12-6.3-12-6.3-18.4-5.5c7,3,12,7.2,16,12.7c2,2.8,2.7,5.5,1.5,9.1c-2.7,7.7-3.5,15.9-4.5,24
	c-0.2,1.3,0.7,3.2-0.9,3.8c-1.4,0.5-2.3-1.2-3.5-2c-8-4.8-16.1-9.5-26.5-12c6.8,5.8,12.8,11,17.1,18.3c-4.1-0.8-7.7-1.5-12.2-2.3
	c3.1,3,6.8,4,9.1,7.3c-5.1,0.7-9.6-0.5-14.2-0.7c-8.6-0.2-17-0.4-25,4.5c-3.4,2.1-8.5,1.4-12.8,2.1c-17.2,2.9-32.6,9.5-45.2,22
	c-0.3,0.3-0.5,0.8-0.7,1.1c1.3,0.9,2.1-0.2,3-0.7c13.6-8.1,28.5-10.7,44.2-10.2c3.3,0.1,3.8,1.1,3.1,4.2c-1.7,8.8-3,17.6-4.4,26.4
	c-0.5,2.9-1.7,5.5-1.9,8.5c-0.8,20.4,3.4,39.3,15.1,56.6c-13.1,4.7-26.3,5.2-39.8,2.7c-13-2.5-23.7-9.1-33.5-17.9
	c-24.4-22-23.6-58.8-12.1-79.5c3.1-5.7,7.4-10.3,12.8-14c10.6-7.3,20.7-15.1,32.6-20.2c6.2-2.7,12.4-5.2,19.5-4.9
	c-5.3-2.5-10.8-2-16.3-1c-12.3,2.1-23.5,7.6-34.8,12.4c-3.1,1.3-6,3.9-9.9,2.7l0,0c2.9-10.6,7.5-20.6,11.3-31
	c4.6-12.5,13.8-20.2,25.8-25.1c12.1-5,24.1-10.2,37.1-12.7c-7.5-1.1-15-0.2-22.3,0.6c-7.3,0.8-14.5,2.3-22.1,3.6
	c1.3-3.7,3.8-6.3,6.2-8.7c11-10.9,21-22.6,29.5-35.7c2.4-3.7,4.9-7.5,7.4-11.2c3.2-4.7,7.7-6,13.2-3.9c7.5,2.9,12.5,8.9,17.5,14.9
	c1.5-7.3-7-16.9-21.4-24c2.5-3.1,5-6,8.8-7.5c6.3-2.5,12.7-0.7,16.8,4.7c2.6,3.4,4.3,7.2,5.6,11.3c0.5,1.8,0,5.2,2,5.1
	c2.7-0.1,1.8-3.4,2.1-5.4c1-6.7-0.1-13.1-2.7-19.3c-1.1-2.6-1.2-4,2.2-3.9c6.3,0.3,12.6,0.1,18.8,0.8c7.8,0.9,13.6,5.3,18.3,11.6
	c9.6,12.9,15.6,27.3,19.2,42.8c0.2,1,0.5,2,0.8,3.3c2.8-11.2-8.9-41.1-21.8-55.8c9.5,0.3,18,2.7,25.5,8.1c1.8,1.3,2.1,3,2.5,4.9
	c2.1,9,4.8,17.9,8.9,26.2c4.9,9.9,10.3,19.6,15.5,29.3c2.1,3.9,4.3,7.8,6.5,11.7c-5.5,0-10.8,0.1-16.2,0c-11.7-0.2-23.2,0.2-33.5,7
	c-2.7,1.8-3.1-0.4-3.8-2.2c-2.8-7.7-6.1-15.1-11.1-21.7c-0.9-1.1-1.4-3-3.6-2.1c3.5,9,3.9,18.3,3.4,28.2c-3.9-2.3-5.5-7.1-11.2-7.9
	c3.9,5.4,6.3,10.5,8.1,15.8C502.8,367.7,502.5,367.9,502.2,368z M535.6,344.7c0.6-5,0.8-10.1,0-15c-0.3-0.1-0.2,0,0,0
	C533,334.7,536.5,339.6,535.6,344.7z"/>
<path class="st0" d="M726.8,160.6c2.9,2.8,6.2,5.4,8.7,8.5c10.8,13.2,17.5,28.1,17.5,45.6c0,2.7-0.5,4-3.7,4.6
	c-14,2.4-27.8,1.2-41.5-1.8c-22.2-4.7-42.8-13.5-62.9-23.9c-9.7-5.1-19.1-10.6-28.5-16.3c-2.6-1.6-3-2.8-1.1-5.3
	c4.6-6.2,9.4-12.1,15.5-17.6c-6.4-2-12.6-1.4-18.7-1.4c-6.2,0.1-12.1,2.2-18.3,2.4c4.8-4,10.5-5.8,16.3-7.1
	c10.1-2.3,20.4-3.6,30.8-2.1c4.8,0.7,9.3-0.7,13.9-1.6c3.1-0.6,5,0.1,6.7,3.1c6.4,11.7,9.8,24,9.5,37.3c0,1.4,0,2.7,0,5.3
	c6.4-15.8,1.5-29.1-4.2-42.2c-2-4.7-2.2-4.6,3-4.9c12.8-0.8,25.3,0.3,37.8,3c3.5,0.8,5.8,2.5,8,5.2c12.1,15.6,17.8,33.1,17.9,52.8
	C739.3,188.6,730.9,175.1,726.8,160.6z"/>
<path class="st3" d="M792.4,347.3c-1.6,1.7-3.1,2.2-5.6,1c-8.7-4.3-17.5-8.3-26.4-12.2c-4-1.8-5.8-5.5-7.2-9.1c-3-7.7-10-11-16.2-15
	c-3.3-2.1-7-1.1-9.4,2.5c-3.7,5.3-7.3,10.6-11,15.8c-12.3,17.5-25.6,34.4-37.5,52.2c-1.8,2.6-1.7,4,0.3,6.3c2.5,2.9,6,5.8,3.6,10.7
	c-0.4,0.9,0.8,2.5,1.3,3.8c0.9,2.3,1.4,4.8-1,6.3c-1.7,1.1-4.1,2-4-1.8c0.1-4-2-7-4.7-9.4c-6.8-6.2-13.8-12.2-22.5-15.7
	c-3.6-1.5-7.2-2.4-11-1.4c-1.5,0.4-2.7,1-3.3-1c-0.5-1.7-0.1-3.1,1.3-4.2c1.2-0.9,2.7-0.8,4.1-0.8c2.4-0.1,4.5,0.1,7-1.5
	c3.4-2.1,7.5-0.1,10.6,1.8c3.7,2.3,5.1,0.8,7.4-2c11.4-13.7,21.2-28.7,32.4-42.5c6.4-7.9,12.3-16.1,18.5-24.1
	c6.4-8.2,17-9.7,25.6-3.8c0.4,0.3,0.8,0.5,1.1,0.9c6.3,5.4,13.2,9.3,21.9,9.4c3.4,0,5.9,1.9,8.4,4.4c6.7,6.7,12.6,14.3,20.4,20
	c2.4,1.8,0.5,3.2-0.1,4.8C794.5,343.8,793.3,345.4,792.4,347.3z M765.7,323.2c-0.7,1.5-3.1,2-2.3,4.3c-2.9-0.3-1.6,2.9-3.2,3.7
	l0.1,0.1l0-0.2c1.3-1,2.8-1.8,3-3.7C764.2,326.1,766.6,325.6,765.7,323.2c0.2-0.2,0.7,0.8,0.8-0.1
	C766.2,323.1,766,323.2,765.7,323.2z M673.7,389.6c0.8,1.4,1.8,2.4,3.9,3c-1.3-1.4-2.4-2.5-3.4-3.6c-5.4-3.6-9.9-8.8-16.8-9.6
	c3.2,1.6,6,3.7,9,5.6C668.8,386.5,670.4,389.5,673.7,389.6z"/>
<linearGradient id="SVGID_1_" gradientUnits="userSpaceOnUse" x1="647.732" y1="299.3318" x2="687.53" y2="299.3318" gradientTransform="matrix(1 0 0 1 0 -40)">
	<stop  offset="0" style="stop-color:#FFEF26"/>
	<stop  offset="5.950000e-02" style="stop-color:#FFE000"/>
	<stop  offset="0.1303" style="stop-color:#FFD300"/>
	<stop  offset="0.2032" style="stop-color:#FECB00"/>
	<stop  offset="0.2809" style="stop-color:#FDC800"/>
	<stop  offset="0.6685" style="stop-color:#F18F34"/>
	<stop  offset="0.8876" style="stop-color:#E95F32"/>
	<stop  offset="1" style="stop-color:#E3312D"/>
</linearGradient>
<path class="st4" d="M687.5,291c-6.1-0.6-11.1-1.3-16.2-1.7c-1.9-0.1-2.7-1.1-3.4-2.6c-6.5-14.4-13-28.8-19.6-43.1
	c-0.6-1.4-0.8-2.5,0-4c2-3.5,4-7,6.7-10.1c2.1-2.4,3.2-2.2,4.5,0.7c4,9.2,7.7,18.5,12.4,27.3C677.5,268.1,682.1,279.2,687.5,291z"/>
<linearGradient id="SVGID_00000163791830110289328860000009501383114257792665_" gradientUnits="userSpaceOnUse" x1="792.39" y1="401.4805" x2="847.33" y2="401.4805" gradientTransform="matrix(1 0 0 1 0 -40)">
	<stop  offset="0" style="stop-color:#FFEF26"/>
	<stop  offset="5.950000e-02" style="stop-color:#FFE000"/>
	<stop  offset="0.1303" style="stop-color:#FFD300"/>
	<stop  offset="0.2032" style="stop-color:#FECB00"/>
	<stop  offset="0.2809" style="stop-color:#FDC800"/>
	<stop  offset="0.6685" style="stop-color:#F18F34"/>
	<stop  offset="0.8876" style="stop-color:#E95F32"/>
	<stop  offset="1" style="stop-color:#E3312D"/>
</linearGradient>
<path style="fill:url(#SVGID_00000163791830110289328860000009501383114257792665_);" d="M792.4,347.3c0.9-1.9,2.1-3.6,4-4.6
	c6.2-0.8,11.6,1.7,17,4.3c14.7,7.3,25.7,18.3,33.9,33.3c-6.1-0.2-11.4-2.4-16.8-3.7c-15.1-3.7-26.4-13-36-24.6
	C793.4,350.7,793.1,348.9,792.4,347.3z M796.1,345.5c3.5,11.7,15.3,18.2,27.8,19.2C817.5,354.2,809.6,346.2,796.1,345.5z"/>
<path class="st1" d="M603.6,369.8c-1.7,0.4-2.7,0.6-3.8,0.8c-7.6,1.7-7.4,1.6-12.4-4.8c-10.3-13.2-18.4-27.4-22.3-43.8
	c-0.1-0.4-0.4-0.8,0.9-1.7C575.1,339.2,588.9,354.5,603.6,369.8z"/>
<linearGradient id="SVGID_00000166654964429487035000000015212238414249125253_" gradientUnits="userSpaceOnUse" x1="641.9857" y1="307.2224" x2="664.14" y2="307.2224" gradientTransform="matrix(1 0 0 1 0 -40)">
	<stop  offset="0" style="stop-color:#FFEF26"/>
	<stop  offset="5.950000e-02" style="stop-color:#FFE000"/>
	<stop  offset="0.1303" style="stop-color:#FFD300"/>
	<stop  offset="0.2032" style="stop-color:#FECB00"/>
	<stop  offset="0.2809" style="stop-color:#FDC800"/>
	<stop  offset="0.6685" style="stop-color:#F18F34"/>
	<stop  offset="0.8876" style="stop-color:#E95F32"/>
	<stop  offset="1" style="stop-color:#E3312D"/>
</linearGradient>
<path style="fill:url(#SVGID_00000166654964429487035000000015212238414249125253_);" d="M664.1,287.4c-4.7,1-7.5-0.3-9.4-4.8
	c-3.5-8.5-7-17.1-11.6-25c-2.2-3.9-0.8-6.1,0.6-9c0.4-0.8,0.7-2,1.8-1.7c0.6,0.1,1.1,1.1,1.3,1.7
	C652.7,261.4,658.4,274.4,664.1,287.4z"/>
<path class="st7" d="M632.9,288.5c27.4,3.5,54.3,6.9,81.7,10.4c-2.2,2.7-4.7,2.1-7,1.9c-22.7-2.8-45.4-5.7-68.1-8.7
	C637.2,291.9,634.5,291.8,632.9,288.5z"/>
<path class="st7" d="M741.4,245.9c-4.7,18.9-13.9,35.8-24.7,51.9C723.6,280,731.8,262.7,741.4,245.9z"/>
<path class="st8" d="M694.5,291c-3.2,0-3.8-2.1-4.3-3.6c-4.5-12.3-10.4-24.1-16.2-35.9c-3.9-8-7.7-16.1-11.6-24.1
	c-0.4-0.8-2.1-2.3,0.1-3c1.5-0.5,1.6,1.1,2.1,2c8.9,18.5,18.1,36.9,26,55.9C691.7,285.2,692.1,288.2,694.5,291z"/>
<linearGradient id="SVGID_00000039095922263696687980000012414986400145456775_" gradientUnits="userSpaceOnUse" x1="716.7" y1="289.1117" x2="732.178" y2="289.1117" gradientTransform="matrix(1 0 0 1 0 -40)">
	<stop  offset="0" style="stop-color:#FFEF26"/>
	<stop  offset="5.950000e-02" style="stop-color:#FFE000"/>
	<stop  offset="0.1303" style="stop-color:#FFD300"/>
	<stop  offset="0.2032" style="stop-color:#FECB00"/>
	<stop  offset="0.2809" style="stop-color:#FDC800"/>
	<stop  offset="0.6685" style="stop-color:#F18F34"/>
	<stop  offset="0.8876" style="stop-color:#E95F32"/>
	<stop  offset="1" style="stop-color:#E3312D"/>
</linearGradient>
<path style="fill:url(#SVGID_00000039095922263696687980000012414986400145456775_);" d="M727.3,260.6c-3.5-7.5-6.9-14.8-10.6-22.8
	c4.3,0.4,8.9-1.6,11.4,1.6C733.4,246.2,734,253.6,727.3,260.6z"/>
<path class="st10" d="M725.3,265.7c-1.4,0.1-2-0.4-2.3-1.1c-3.7-8.2-7.3-16.5-11-24.7c-0.4-0.8-1.2-1.8-0.3-2.5
	c1-0.8,1.8,0.1,2.2,0.9C717.8,247.4,722.7,256,725.3,265.7z"/>
<path class="st11" d="M737.4,234.8c4.2-0.7,8.3-1,12.5-1.8c-2.5,6.1-3.5,6.4-8.1,3.7C740.4,235.9,738.9,235.5,737.4,234.8z"/>
<path class="st11" d="M702.5,231.4c3.1,0.5,6.1,1.1,9.2,1.6c0,0.1,0,0.1,0,0.2c-3-0.5-6-1.1-8.9-1.6
	C702.7,231.6,702.6,231.5,702.5,231.4z"/>
<path class="st12" d="M685.1,225.5c-1.1-0.7-2.8,0.4-3.5-1.3c1.1,0.4,2.2,0.9,3.4,1.4L685.1,225.5z"/>
<path class="st12" d="M687.3,226.3c0.3,0.2,0.7,0.5,1,0.7c-0.1,0.1-0.2,0.2-0.3,0.2C687.3,227.2,687.5,226.6,687.3,226.3
	C687.4,226.3,687.3,226.3,687.3,226.3z"/>
<path class="st13" d="M685,225.6c0.8,0.2,1.5,0.4,2.3,0.7c0,0,0.1,0,0.1,0c-0.7-0.4-1.9,0.6-2.3-0.8L685,225.6z"/>
<path class="st12" d="M725.6,159.6c0.3,0.2,0.7,0.5,1,0.8c-0.2,0.2-0.5,0.6-0.6,0.6c-0.4-0.1-0.8-0.4-1.2-0.6
	C725,160.1,725.3,159.9,725.6,159.6z"/>
<path class="st12" d="M503,367.5c0,0.4,0,0.7,0.1,1.1c-0.3-0.2-0.6-0.3-0.9-0.5C502.5,367.9,502.8,367.7,503,367.5z"/>
<path class="st12" d="M359.7,415.6c0.1,0.1,0.2,0.3,0.3,0.4C359.9,415.9,359.8,415.8,359.7,415.6L359.7,415.6z"/>
<path class="st14" d="M588.3,197.8c2.3-6.5,6.1-11.9,12-17.3C597.5,188.1,593.7,193.6,588.3,197.8z"/>
<path class="st14" d="M578.7,190.7c4.2-5.2,7.3-10.9,12.6-15.1C590.6,181.2,583.7,189.7,578.7,190.7z"/>
<path class="st14" d="M584.8,168.7c-3,6.4-7.7,9.9-12.3,13.4C574.8,176.5,578.1,171.8,584.8,168.7z"/>
<path class="st14" d="M478.3,597.2c4.9,1.3,10.1,0.1,14.6,1.4C488.2,600.2,483.4,598,478.3,597.2z"/>
<path class="st14" d="M587.8,509.6c-2.2-3.8-6.8,0.2-9.3-2.8C581.7,507.5,585.8,505.3,587.8,509.6z"/>
<path class="st14" d="M535.6,344.7c0.9-5.1-2.6-10,0-15c-0.1,0-0.2-0.1,0,0C536.4,334.6,536.2,339.7,535.6,344.7z"/>
<path class="st14" d="M673.7,389.6c-3.3-0.2-4.9-3.1-7.3-4.6c-3-1.9-5.9-4-9-5.6c7,0.8,11.5,6,16.8,9.6
	C674,389.2,673.8,389.4,673.7,389.6z"/>
<path class="st14" d="M760.2,331.2c1.6-0.8,0.3-4,3.2-3.7l-0.1-0.1c-0.2,1.9-1.8,2.6-3,3.6L760.2,331.2z"/>
<path class="st14" d="M763.4,327.5c-0.8-2.3,1.6-2.8,2.3-4.3l0,0C766.6,325.6,764.2,326.1,763.4,327.5
	C763.3,327.5,763.4,327.5,763.4,327.5z"/>
<path class="st14" d="M674.2,389c1,1.1,2.1,2.2,3.4,3.6c-2.1-0.5-3.1-1.6-3.9-3C673.8,389.4,674,389.2,674.2,389z"/>
<path class="st14" d="M760.2,331.1l0,0.2c0,0-0.1-0.1-0.1-0.1L760.2,331.1z"/>
<path class="st14" d="M765.7,323.2c0.3,0,0.5-0.1,0.8-0.1C766.3,324,765.9,323,765.7,323.2C765.6,323.2,765.7,323.2,765.7,323.2z"/>
<path class="st14" d="M796.1,345.5c13.4,0.8,21.3,8.7,27.8,19.2C811.4,363.7,799.7,357.1,796.1,345.5z"/>
<path class="st15" d="M509.8,42.4c1.4,5.5,2.4,11.1,4.1,16.5c8.4,26.2,17,52.4,25.8,78.5c0.7,2.1,3.3,4.4,5.5,5.2
	c8.5,2.8,17.2,4.9,27.4,7.7c-4.3,4.7-7.9,8.7-11.5,12.6c-8.5,9.2-16.7,18.6-25.6,27.4c-1.8,1.8-6,2.1-9,1.8c-27.7-3-55-2.6-81.9,3
	c-47.1,9.8-86,31.7-116.3,66.6c-39.5,45.6-55.8,98.7-48.2,158.4c6.1,47.4,28.6,88.2,68.1,120.8c34.8,28.7,75.2,45.7,119.3,53.7
	c27.5,5,55.5,7.2,84.6,10.9c5.6,47.2,11.5,96.3,17.4,145.6c-25.9,4.8-51.4,9.5-77.8,14.3c-2.7-8-5.4-15.8-7.9-23.6
	c-8.2-26-16.5-52-24.4-78.1c-1.8-5.9-4.9-9-11.2-11.2c-22.7-7.7-45.3-15.8-67.7-24.3c-4.7-1.8-7.5-1.1-11,1.4
	c-30,21.3-60.2,42.4-90.6,63.8c-11-9-22-17.8-32.9-26.8c-8.7-7.2-17.1-14.8-26.1-21.6c-5.1-3.9-6.4-7.2-3.4-12.5
	c9.4-16.2,18.6-32.5,27.8-48.8c7.3-12.8,14.7-25.4,21.7-38.3c1.1-2,1.1-5.4,0.1-7.5c-11.3-23.1-22.7-46-34.5-68.9
	c-1.1-2.2-4.9-4.3-7.7-4.8c-38.3-5.8-76.6-11.4-115.4-17c-1.8-27.9-3.6-55.7-5.4-84c39-5.2,77.9-10.3,115.9-15.3
	c6.2-17.5,11.6-32.5,16.9-47.4c3-8.5,6.1-16.9,8.5-25.6c0.7-2.5,0.3-6.3-1.3-8.5c-20.8-29.2-41.8-58.2-63.2-87.1
	c-2.5-3.4-1.9-5.3,0.3-7.6c17.1-18,34.3-35.9,52-54.4c13.3,8.1,26.4,16.2,39.7,24.2c18,10.9,36,22,54.2,32.6
	c2.1,1.2,6.1,1.2,8.4,0.2c22.8-9.9,45.7-20,68.5-30.6c2.7-1.3,4.8-5.2,5.4-8.3c6.1-31.3,11.8-62.8,17.6-94.2
	c0.2-1.1,0.5-2.1,0.9-3.7c27.3,1.3,54.4,2.7,81.6,4C509,41.8,509.4,42.1,509.8,42.4z"/>
<g>
	<g>
		<path class="st16" d="M876.7,277.3l-0.1,83.6l-10.8,0l0.1-83.6L876.7,277.3z"/>
		<path class="st16" d="M895.3,360.9l0.1-83.6l11.8,0l26.6,42.3c6.1,9.8,10.9,18.6,14.8,27.2l0.3-0.1c-1-11.2-1.1-21.4-1.1-34.3
			l0.1-35l10.1,0l-0.1,83.6l-10.9,0l-26.4-42.4c-5.7-9.4-11.3-18.9-15.4-28l-0.4,0.1c0.6,10.6,0.8,20.7,0.7,34.5l-0.1,35.7
			L895.3,360.9z"/>
		<path class="st16" d="M976.6,278.6c6.6-1.1,14.4-1.8,22.8-1.8c15.4,0,26.4,3.7,33.7,10.5c7.4,6.8,11.8,16.5,11.7,29.9
			c0,13.7-4.3,24.8-12,32.5c-7.9,7.8-20.7,12-36.8,12c-7.7,0-14.1-0.3-19.5-1L976.6,278.6z M987.2,352.6c2.7,0.5,6.7,0.5,10.8,0.5
			c23,0.1,35.4-12.8,35.5-35.4c0.2-19.7-10.9-32.2-33.6-32.2c-5.5,0-9.7,0.5-12.6,1.1L987.2,352.6z"/>
		<path class="st16" d="M1069.5,277.6l-0.1,49.5c0,18.6,8.2,26.6,19.4,26.6c12.2,0,20.2-8.2,20.3-26.5l0.1-49.5l10.8,0l-0.1,48.8
			c0,25.7-13.5,36.1-31.5,36.1c-17,0-29.8-9.8-29.7-35.8l0.1-49.2L1069.5,277.6z"/>
		<path class="st16" d="M1137,348.2c4.8,3,11.8,5.4,19.2,5.5c11,0,17.4-5.7,17.5-14.2c0-7.8-4.5-12.3-15.7-16.6
			c-13.6-4.9-22-12-21.9-23.7c0-13,10.8-22.6,27-22.6c8.4,0,14.7,2,18.3,4.1l-3,8.8c-2.7-1.6-8.2-4-15.7-4
			c-11.4,0-15.7,6.8-15.8,12.5c0,7.8,5,11.6,16.5,16.1c14.1,5.6,21.2,12.4,21.2,24.6c0,12.8-9.4,24.1-29.1,24
			c-8,0-16.8-2.5-21.2-5.5L1137,348.2z"/>
		<path class="st16" d="M1215.2,287l-25.3,0l0-9.1l61.6,0.1l0,9.1l-25.4,0l-0.1,74.4l-10.8,0L1215.2,287z"/>
		<path class="st16" d="M1260.7,279.1c5.4-1.1,13.3-1.8,20.7-1.8c11.4,0,18.9,2.2,24.1,6.9c4.1,3.7,6.5,9.4,6.5,15.9
			c0,11-7,18.3-15.7,21.3v0.3c6.3,2.2,10.2,8.3,12.2,16.9c2.7,11.7,4.7,19.7,6.4,22.9l-11.1,0c-1.3-2.4-3.2-9.5-5.4-20
			c-2.4-11.4-6.9-15.9-16.7-16.2l-10.2,0l-0.1,36.2l-10.7,0L1260.7,279.1z M1271.3,317.1l11,0c11.5,0,18.8-6.3,18.8-15.8
			c0-10.9-7.8-15.6-19.1-15.6c-5.2,0-8.8,0.5-10.6,0.9L1271.3,317.1z"/>
		<path class="st16" d="M1337.8,278.1l-0.1,83.6l-10.8,0l0.1-83.6L1337.8,278.1z"/>
		<path class="st16" d="M1369.9,335.4l-8.6,26.2l-11.1,0l28.4-83.5l12.9,0l28.3,83.6l-11.5,0l-8.9-26.3L1369.9,335.4z M1397.2,327
			L1389,303c-1.8-5.5-3-10.5-4.3-15.2h-0.3c-1.2,4.9-2.5,10-4.2,15.1l-8.2,24.2L1397.2,327z"/>
	</g>
</g>
<g>
	<g>
		<path class="st17" d="M927.8,426.9c-0.6-11.9-1.2-26.4-1.2-37.1h-0.3c-2.6,10-5.7,20.8-9.4,32.6l-13.2,41.7h-7.3l-12.1-40.9
			c-3.5-12.1-6.5-23.2-8.5-33.3h-0.3c-0.3,10.7-0.7,25-1.5,37.9l-2,36.9H863l5.2-85.9h12.3l12.7,41.6c3.1,10.5,5.6,20,7.5,29h0.3
			c2-8.7,4.6-18.2,7.9-28.9l13.3-41.6h12.3l4.6,85.9h-9.5L927.8,426.9z"/>
		<path class="st17" d="M992.4,424.3h-28.9v31h32.3v9.2h-42v-85.9h40.3v9.2h-30.6v27.2h28.9V424.3z"/>
		<path class="st17" d="M1022.5,388.1h-22.7v-9.4h55.2v9.4h-22.8v76.6h-9.7L1022.5,388.1L1022.5,388.1z"/>
		<path class="st17" d="M1075.3,437.6l-7.7,27h-10l25.3-85.9h11.6l25.5,85.9h-10.3l-8-27H1075.3z M1099.8,428.9l-7.4-24.7
			c-1.6-5.6-2.7-10.7-3.8-15.7h-0.3c-1.1,5-2.2,10.3-3.7,15.5l-7.3,24.9H1099.8z"/>
		<path class="st17" d="M1130.9,378.7h9.7v76.6h31.9v9.4h-41.6V378.7z"/>
		<path class="st17" d="M1246,426.9c-0.6-11.9-1.2-26.4-1.2-37.1h-0.3c-2.6,10-5.7,20.8-9.4,32.6l-13.2,41.7h-7.3l-12.1-40.9
			c-3.6-12.1-6.4-23.2-8.5-33.3h-0.3c-0.3,10.7-0.7,25-1.5,37.9l-2,36.9h-9.2l5.2-85.9h12.3l12.7,41.6c3.1,10.5,5.6,20,7.5,29h0.3
			c2-8.7,4.6-18.2,7.9-28.9l13.3-41.6h12.3l4.6,85.9h-9.5L1246,426.9z"/>
		<path class="st17" d="M1310.6,424.3h-28.9v31h32.3v9.2h-42v-85.9h40.3v9.2h-30.6v27.2h28.9L1310.6,424.3L1310.6,424.3z"/>
		<path class="st17" d="M1378.5,461.9c-3.5,2-10.6,4.1-19.7,4.1c-21,0-36.7-15.3-36.7-43.5c0-27,15.8-45.1,38.9-45.1
			c9.2,0,15.2,2.2,17.7,3.8l-2.4,9c-3.6-2-8.8-3.5-15-3.5c-17.5,0-29.1,12.9-29.1,35.5c0,21,10.5,34.5,28.6,34.5
			c5.9,0,11.9-1.4,15.8-3.5L1378.5,461.9z"/>
		<path class="st17" d="M1402.7,437.6l-7.7,27h-10l25.3-85.9h11.6l25.5,85.9h-10.3l-8-27H1402.7z M1427.1,428.9l-7.4-24.7
			c-1.6-5.6-2.7-10.7-3.8-15.7h-0.3c-1.1,5-2.2,10.3-3.7,15.5l-7.3,24.9H1427.1z"/>
		<path class="st17" d="M1458.2,464.6v-85.9h10.6l23.9,43.4c5.4,10.1,9.8,19.1,13.3,28l0.2-0.1c-0.9-11.5-1.1-22-1.1-35.3v-36h9.1
			v85.9h-9.8l-23.7-43.6c-5.1-9.6-10.2-19.4-13.9-28.8l-0.3,0.1c0.6,10.9,0.7,21.2,0.7,35.5v36.8L1458.2,464.6L1458.2,464.6z"/>
		<path class="st17" d="M1540.7,378.7v85.9h-9.7v-85.9H1540.7z"/>
		<path class="st17" d="M1609.5,461.9c-3.5,2-10.6,4.1-19.7,4.1c-21,0-36.7-15.3-36.7-43.5c0-27,15.8-45.1,38.9-45.1
			c9.2,0,15.2,2.2,17.7,3.8l-2.4,9c-3.6-2-8.8-3.5-15-3.5c-17.5,0-29.1,12.9-29.1,35.5c0,21,10.5,34.5,28.6,34.5
			c5.9,0,11.9-1.4,15.8-3.5L1609.5,461.9z"/>
		<path class="st17" d="M1633.7,437.6l-7.7,27h-10l25.3-85.9h11.6l25.5,85.9h-10.3l-8-27H1633.7z M1658.2,428.9l-7.4-24.7
			c-1.6-5.6-2.7-10.7-3.8-15.7h-0.3c-1.1,5-2.2,10.3-3.7,15.5l-7.3,24.9H1658.2z"/>
	</g>
</g>
<g>
	<g>
		<path class="st18" d="M848.9,630.5l2.5-15.1l4.8,2c4.1,1.8,7.2,2.9,9.3,3.3s4.3,0.7,6.8,0.7c7.5,0,13.1-2.6,17-7.8
			c2-2.8,3.6-5.8,4.6-9s2-7.6,2.9-13.1l13.7-80.5h-34.1l2.2-13.4h49.2L913.4,582c-1.6,9.7-3.3,17.4-5,23c-1.7,5.6-4.5,10.9-8.5,15.9
			c-3.6,4.5-7.9,8-12.9,10.4c-5,2.4-10.4,3.6-16.2,3.6C865.1,634.9,857.7,633.4,848.9,630.5z"/>
		<path class="st18" d="M916.3,631.5L939,497.6h31.8c8.5,0,14.5,0.8,18.2,2.4c3.7,1.6,6.6,4.2,8.6,8s3.1,8.2,3.1,13.3
			c0,5.1-1,10.2-3.1,15.1s-5,9.5-8.7,13.7s-9.4,8.1-17,11.8c5.4,1.9,9.7,4.3,12.8,7.2c3.1,2.9,5.3,6.2,6.8,9.9
			c1.5,3.7,2.2,7.8,2.2,12.3c0,7.1-1.8,13.8-5.3,20.2s-8.1,11.4-13.8,14.8c-5.7,3.5-15.2,5.2-28.6,5.2L916.3,631.5L916.3,631.5z
			 M933.7,618.1h13.6c8.9,0,15-1,18.4-2.9s6.3-5.2,8.6-9.7s3.5-9.1,3.5-13.8c0-6.5-2.4-12-7.2-16.7c-4.8-4.7-12.4-7.1-22.8-7.1h-5.5
			L933.7,618.1z M944.1,556.7h5.3c8.7,0,15.3-1.3,20-3.8c4.7-2.6,8.3-6.2,11.1-11c2.7-4.7,4.1-9.6,4.1-14.5c0-3.6-0.8-6.6-2.3-9.1
			c-1.6-2.5-3.9-4.4-7-5.5c-3.1-1.1-8.5-1.7-16.3-1.7h-7L944.1,556.7z"/>
		<path class="st18" d="M1052.1,628.5l3-17.6c12.1,7.1,22.9,10.7,32.4,10.7c4.9,0,9.5-1.1,13.8-3.3c4.3-2.2,7.8-5.6,10.4-10.2
			s3.9-9.1,3.9-13.7c0-6.8-3.4-12.5-10.2-17.2l-19.8-13.6c-5.1-3.6-9.1-7.4-12-11.6c-2.9-4.2-4.4-9.4-4.4-15.7
			c0-7.3,1.8-14.3,5.3-20.9c3.5-6.7,8.2-11.8,14-15.5s13.1-5.5,21.8-5.5c8.7,0,18.2,1.8,28.6,5.4l-2.6,15.5
			c-10.2-5-19.5-7.5-27.8-7.5c-8.5,0-14.7,2.3-18.6,7c-3.9,4.7-5.8,9.7-5.8,15.3c0,3,0.8,5.9,2.5,8.8c1.6,3,4.7,6,9.4,9.1l18.4,12.6
			c6.7,4.5,11.2,8.9,13.6,13.2c2.4,4.2,3.6,9.1,3.6,14.5c0,8-2.1,15.7-6.2,23.3c-4.2,7.6-9.8,13.4-16.8,17.4s-15.4,6-24.9,6
			c-3.3,0-7.1-0.3-11.2-0.9C1068.2,633.4,1061.4,631.6,1052.1,628.5z"/>
		<path class="st18" d="M1135.2,621.2c0-9.5,6.3-17.6,14.2-17.6c6.1,0,10.1,5.2,10.1,12.6c0,9.3-6.3,17.6-14.3,17.6
			C1139.1,633.8,1135.2,628.6,1135.2,621.2z"/>
		<path class="st18" d="M1176.5,631.5l61.6-133.9h15.1l16.1,133.9h-16.1l-4.6-38H1207l-17.5,38H1176.5z M1213.2,580.1h34l-7-58.6
			L1213.2,580.1z"/>
		<path class="st18" d="M1271.8,621.2c0-9.5,6.3-17.6,14.2-17.6c6.1,0,10.1,5.2,10.1,12.6c0,9.3-6.3,17.6-14.3,17.6
			C1275.7,633.8,1271.8,628.6,1271.8,621.2z"/>
		<path class="st18" d="M1325.2,628.5l3-17.6c12.1,7.1,22.9,10.7,32.4,10.7c4.9,0,9.5-1.1,13.8-3.3c4.3-2.2,7.8-5.6,10.4-10.2
			s3.9-9.1,3.9-13.7c0-6.8-3.4-12.5-10.2-17.2l-19.8-13.6c-5.1-3.6-9.1-7.4-12-11.6c-2.9-4.2-4.4-9.4-4.4-15.7
			c0-7.3,1.8-14.3,5.3-20.9c3.5-6.7,8.2-11.8,14-15.5s13.1-5.5,21.8-5.5c8.7,0,18.2,1.8,28.6,5.4l-2.6,15.5
			c-10.2-5-19.5-7.5-27.8-7.5c-8.5,0-14.7,2.3-18.6,7c-3.9,4.7-5.8,9.7-5.8,15.3c0,3,0.8,5.9,2.5,8.8c1.6,3,4.7,6,9.4,9.1l18.4,12.6
			c6.7,4.5,11.2,8.9,13.6,13.2c2.4,4.2,3.6,9.1,3.6,14.5c0,8-2.1,15.7-6.2,23.3c-4.2,7.6-9.8,13.4-16.8,17.4s-15.4,6-24.9,6
			c-3.3,0-7.1-0.3-11.2-0.9C1341.3,633.4,1334.6,631.6,1325.2,628.5z"/>
		<path class="st18" d="M1408.3,621.2c0-9.5,6.3-17.6,14.2-17.6c6.1,0,10.1,5.2,10.1,12.6c0,9.3-6.3,17.6-14.3,17.6
			C1412.2,633.8,1408.3,628.6,1408.3,621.2z"/>
	</g>
</g>
<polygon class="st19" points="1640.7,610.9 1656.4,610.9 1656.4,610.9 "/>
<polygon class="st19" points="1543,635.3 1558.7,635.3 1558.7,635.3 "/>
<text transform="matrix(1 0 0 1 441 340.89)" class="st20 st21">Lorem ipsum</text>
</svg>
