<?xml version="1.0" encoding="utf-8"?>
<!-- Generator: Adobe Illustrator 26.0.0, SVG Export Plug-In . SVG Version: 6.00 Build 0)  -->
<svg version="1.1" id="Capa_1" xmlns="http://www.w3.org/2000/svg" xmlns:xlink="http://www.w3.org/1999/xlink" x="0px" y="0px"
	 viewBox="0 0 2056.15 801.16" style="enable-background:new 0 0 2056.15 801.16;" xml:space="preserve">
<style type="text/css">
	.st0{fill:#3F3F3F;}
	.st1{fill:url(#SVGID_1_);}
	.st2{fill:url(#SVGID_00000143617606208348002050000002426623868445479829_);}
	.st3{fill:url(#SVGID_00000035533191760802328270000003113869287681809048_);}
	.st4{fill:#0E0E0E;}
	.st5{fill:#E30613;}
	.st6{fill:url(#SVGID_00000119811963255050184960000008996395342156274111_);}
	.st7{fill:#BE1622;}
	.st8{fill:#616161;}
	.st9{fill:#173851;}
	.st10{fill:#393939;}
	.st11{fill:#F4F6F7;}
	.st12{fill:#888888;}
	.st13{fill:#3AAA35;stroke:#3AAA35;stroke-width:3;stroke-miterlimit:10;}
	.st14{fill:#706F6F;stroke:#706F6F;stroke-width:3;stroke-miterlimit:10;}
	.st15{fill:#E94E1B;stroke:#E94E1B;stroke-miterlimit:10;}
	.st16{fill:none;}
	.st17{fill:#575756;}
	.st18{font-family:'MyriadPro-Regular';}
	.st19{font-size:86.6799px;}
</style>
<path class="st0" d="M753.01,223.94c-0.21-2.99-2.36-0.43-3.52-0.41c-6.89,0.1-13.75,0.93-20.68,0.53
	c-21.6-1.26-41.87-7.71-61.45-16.25c-18.38-8.02-36.07-17.49-52.54-29.05c-2.33-1.63-4.38-2.53-6.52,0.05
	c-1.46,1.76-2.77,1.2-4.4,0.13c-6.59-4.31-12.7-9.22-18.19-14.86c-1.87-1.92-3.21-3.07-5.28-0.18c-0.24,0.34-0.49,0.61-0.76,0.85
	l-17.23,19.3c3.02,0.75,4.12,1.73,2.53,4.93c-1.55,3.12-2.45,6.56-4.01,10.92c4.14-2.79,5.07-6.62,7.33-9.39
	c1.02-1.25,1.76-2.31,3.16-0.56c3.98,4.94,9.33,8.28,14.19,12.18c1.84,1.48,2.22,2.63,0.9,4.64c-2.89,4.41-5.66,9.03-7.8,13.72
	c-11.78,25.82-19.35,52.67-17.61,81.48c0.13,2.09,0.7,3.94,1.57,5.83c6.44,14.01,14.82,26.76,24.78,38.49
	c4.37,5.14,8.68,10.33,13.32,15.22c3.1,3.27,6.05,7.3,10.36,8.63c6.64,2.06,12.91,4.79,19.05,7.9c2.49,1.26,4.18,1.91,4.81-1.84
	c0.28-1.71,1.99-3.29,3.64-3.36c7.66-0.31,15.34-5.16,23.02-0.12c1.32,0.87,2.31,1.04,3.51-0.53c3.86-5.06,7.96-9.93,11.91-14.91
	c9.24-11.63,16.98-24.4,27.06-35.39c1.9-2.07,4.04-4.26,4.84-7.77c-9.3,0-18.25,0.3-27.18-0.07c-15.82-0.65-31.67-1.68-47.06-5.68
	c-13.6-3.54-23.23-13.12-21.11-30.28c2.21-17.89,10.05-33.13,21.07-47c1.52-1.92,3.28-3.64,5.34-5.9c0.24,2.26-0.86,2.86-1.48,3.68
	c-9.97,13.08-16.42,27.74-19.61,43.82c-3.54,17.8,2.99,27.57,20.75,31.45c0.15,0.03,0.29,0.12,0.45,0.15
	c22.93,3.79,46,5.99,69.24,6.3c1.38,0.02,2.84,0.27,3.9-1.06c2.43-3.07,4.89-6.11,7.33-9.16c-0.16-0.41-0.32-0.83-0.49-1.24
	c-4.67,5.59-10.37,5.93-16.74,5.07c-20.96-2.84-41.97-5.42-62.98-7.83c-11.1-1.27-15.38-6.45-13.04-17.45
	c3.97-18.58,11.75-35.56,23.1-50.73c4.39-5.87,10.14-10.35,18.48-7.52c0.45,0.15,1.29,0.08,1.4-0.85c-0.24-1.12-1.32-1.21-2.11-1.54
	c-6.37-2.6-12.76-5.14-19.53-6.61c-23.32-5.08-44.06,4.96-53.48,26.13c-3.29,7.39-4.74,15.23-4.91,23.31
	c-0.34,15.69,3.89,30.38,9.8,44.71c0.67,1.63,2.16,3.14,1.15,5.56c-2.93-3.47-4.19-7.5-5.65-11.37
	c-7.18-19.03-10.66-38.41-4.29-58.41c6.04-18.99,21.56-31.63,40.19-33.39c16.13-1.53,30.82,3.74,44.68,10.63
	c20.93,10.41,42.86,13.37,65.73,12.19c2.66-0.14,5.36-0.36,7.92-1.01C752.9,229.26,753.17,226.18,753.01,223.94z M571.95,182
	c2.34-5.58,5.66-10.29,12.35-13.45C581.31,174.97,576.56,178.41,571.95,182z M578.16,190.61c4.18-5.23,7.31-10.92,12.57-15.07
	C590.08,181.11,583.14,189.56,578.16,190.61z M587.8,197.75c2.34-6.53,6.08-11.95,12.05-17.27
	C596.91,187.96,593.17,193.47,587.8,197.75z"/>
<path class="st0" d="M489.14,505.67c-2.3-1.08-4.02-0.06-5.74,0.6c-10.72,4.13-21.85,6.62-33.2,8.18
	c-6.68,0.92-12.9-3.07-13.88-9.73c-1.9-12.84-1.13-25.71,1.81-38.32c1.4-5.99,6.07-9.35,11.87-10.91
	c13.56-3.65,27.33-5.45,41.4-4.45c-16.76-4.33-33.6-3.98-50.49-0.63c-0.64-9.5,6.06-16.1,16.3-16.02
	c12.93,0.1,25.85,0.27,38.78,0.31c12.55,0.04,25.1,0.67,37.64-0.14c1.17-0.08,2.34-0.21,3.5-0.95c-8.02-0.59-16.04-1.16-24.06-1.77
	c-4.69-0.36-9.38-0.79-14.07-1.13c-1.73-0.13-3.12-0.23-2.55-2.68c3.13-13.41,5.27-27.12,11.24-39.71
	c7.92-16.7,21.9-23.76,39.72-24.2c8.15-0.2,16.32-0.01,24.48-0.04c1.81-0.01,3.15,0.35,4.38,2c3.63,4.84,7.39,9.6,11.41,14.12
	c1.82,2.05,1.53,2.9-0.3,4.79c-4.33,4.48-9.49,8.08-13.38,13.03c-3,3.83-6.19,7.55-8.47,11.85c-3.28,6.18-8.36,10.01-14.72,12.44
	c-5.99,2.28-9.07,6.99-9.87,13.06c-1.2,9.13-3.68,16.94-12.17,22.57c-8.31,5.51-9.93,15.93-5.96,27.54c0-2.03,0.07-3.67-0.01-5.31
	c-0.45-9.3,2.9-16.54,11.34-21.02c6.76-3.59,10.64-9.36,11.47-16.79c0.93-8.31,5.11-13.32,13-15.76c4.47-1.38,8.13-4.37,10.5-8.34
	c5.77-9.71,14.45-16.75,21.85-24.97c7.43-8.25,16.05-8.85,25.61-5c3.48,1.4,6.87,3.06,10.18,4.85c10.23,5.54,21.58,8.33,32.07,13.25
	c5.4,2.54,10.6,5.46,15.47,8.79c6.22,4.26,10.52,10.32,12.61,17.68c3.69,12.98-1.2,22-14.99,27.91c0.85,1.21,1.95,0.45,2.95,0.35
	c0.91-0.09,1.81-0.27,3.04-0.46c-1.16,7.16,2.55,15.3-4.77,20.63c-5.94,4.33-12.13,2.31-19.02-0.72
	c6.93-3.07,10.98-7.87,13.03-14.42c3.32-10.64-0.66-24.22-12.28-32.01c-11.16-7.48-22.67-14.45-33.82-21.96
	c-4.02-2.71-8.68-4.28-14.16-4.17c1.88,2.59,4.86,2.64,6.93,4.16c4.19,3.09,7.94,6.64,11.59,10.31
	c5.52,5.56,11.36,10.56,18.33,14.43c9.87,5.48,17.32,13.14,16.77,25.67c-0.35,7.9-6.01,14.81-13.14,16.46
	c-1.51,0.35-2.23,0.6-3.04-1.39c-6.5-15.95-18.58-26.59-33.5-34.36c-3.33-1.73-6.74-3.32-10.14-4.92c-1.81-0.85-3.69-1.39-5.93-0.61
	c11,9.23,22.82,17.23,32.13,28.11c5.74,6.71,10.55,13.72,9.27,23.22c-0.74,5.48-4.69,10.09-9.88,11.31
	c-2.07,0.49-3.56,0.63-4.63-2.2c-2.07-5.5-5.82-9.69-11.13-12.79c-7.99-4.67-14.88-10.96-22.24-16.57
	c-4.09-3.11-8.5-5.57-14.22-4.86c14.21,10,24.59,23.72,37.81,34.32c3.18,2.55,3.56,9.16,0.87,12.67
	c-7.75,10.12-17.85,16.38-30.68,17.95c-2.93,0.36-4.93,0.19-3.11-4.19c-4.05,1.81-6.08,4.89-8.98,6.83
	c-6.5,4.34-12.65,9.49-21.37,7.86c-2.84-0.53-5.45-1.4-7.58-3.41c-3.74-3.54-3.74-5.51,0.03-8.91c3.47-3.12,5.64-7.04,7.28-11.36
	c2.72-7.16,5.37-8.26,11.97-4.76c4.2,2.23,8.76,3.26,13.23,4.62c1.1,0.33,2.2,0.1,3.11-1.62c-6.95-1.33-12.81-4.95-18.94-8.03
	c-4.28-2.15-9.91-0.45-11.52,4.08c-4.98,13.96-16.29,18.18-29.23,21.08c-16.03,3.58-31.82,8.21-47.81,11.93
	c-11.49,2.67-19.81-1.64-25.24-12.11c-2.46-4.73-1.22-7.99,3.94-9.15C462.28,518.47,475.91,513.22,489.14,505.67z M587.8,516.93
	c-2.02-4.37-6.13-2.1-9.31-2.77C580.96,517.1,585.6,513.14,587.8,516.93z"/>
<path class="st0" d="M502.22,368.04c-11.98-6.29-12.02-6.31-18.39-5.55c7,3,12.02,7.2,15.95,12.72c2.01,2.83,2.74,5.46,1.46,9.07
	c-2.74,7.71-3.47,15.89-4.53,23.98c-0.17,1.3,0.68,3.21-0.89,3.78c-1.37,0.5-2.34-1.25-3.51-1.95c-8.05-4.8-16.15-9.46-26.46-12.03
	c6.77,5.83,12.77,11.04,17.09,18.33c-4.11-0.78-7.74-1.48-12.17-2.32c3.07,3,6.79,3.96,9.07,7.33c-5.07,0.72-9.63-0.55-14.22-0.67
	c-8.63-0.23-17.01-0.4-24.99,4.46c-3.43,2.09-8.52,1.39-12.83,2.12c-17.2,2.92-32.65,9.51-45.19,22.02c-0.3,0.3-0.45,0.76-0.66,1.13
	c1.31,0.86,2.15-0.17,3.02-0.69c13.65-8.11,28.55-10.68,44.2-10.2c3.29,0.1,3.76,1.1,3.15,4.22c-1.7,8.76-2.96,17.61-4.41,26.42
	c-0.47,2.87-1.74,5.5-1.85,8.55c-0.79,20.36,3.4,39.33,15.13,56.63c-13.12,4.74-26.34,5.2-39.82,2.65
	c-13.05-2.47-23.67-9.06-33.48-17.88c-24.42-21.97-23.63-58.75-12.11-79.55c3.15-5.69,7.4-10.31,12.82-14.03
	c10.57-7.26,20.73-15.11,32.64-20.24c6.25-2.69,12.43-5.17,19.45-4.86c-5.29-2.5-10.79-1.98-16.31-1.05
	c-12.34,2.09-23.46,7.59-34.83,12.42c-3.11,1.32-6.01,3.89-9.85,2.74l-0.02,0.04c2.87-10.65,7.53-20.65,11.31-30.97
	c4.58-12.48,13.8-20.18,25.78-25.12c12.1-4.98,24.12-10.19,37.09-12.74c-7.55-1.09-14.96-0.2-22.33,0.62
	c-7.28,0.81-14.49,2.3-22.14,3.56c1.28-3.72,3.82-6.27,6.24-8.66c11.03-10.93,21.04-22.63,29.49-35.73c2.41-3.74,4.86-7.5,7.38-11.2
	c3.2-4.71,7.7-6.03,13.16-3.92c7.54,2.92,12.54,8.89,17.51,14.88c1.46-7.27-7-16.85-21.35-24.02c2.51-3.08,5.03-5.98,8.83-7.47
	c6.28-2.46,12.7-0.69,16.75,4.72c2.56,3.42,4.33,7.23,5.57,11.32c0.55,1.82,0,5.18,1.98,5.1c2.69-0.1,1.78-3.41,2.07-5.41
	c0.97-6.68-0.08-13.15-2.71-19.3c-1.13-2.65-1.18-4.02,2.24-3.86c6.26,0.31,12.57,0.11,18.78,0.84c7.81,0.92,13.6,5.34,18.33,11.65
	c9.63,12.87,15.63,27.27,19.16,42.82c0.23,1.03,0.53,2.05,0.85,3.31c2.77-11.21-8.89-41.14-21.75-55.79
	c9.53,0.3,17.96,2.73,25.54,8.09c1.78,1.26,2.06,3.05,2.48,4.85c2.12,9.02,4.79,17.88,8.92,26.17c4.93,9.89,10.28,19.57,15.5,29.31
	c2.09,3.91,4.31,7.75,6.5,11.68c-5.47,0-10.84,0.06-16.22-0.01c-11.68-0.16-23.24,0.19-33.47,6.99c-2.68,1.78-3.13-0.4-3.78-2.17
	c-2.83-7.67-6.09-15.13-11.12-21.66c-0.85-1.1-1.4-3.03-3.62-2.13c3.5,9.01,3.89,18.32,3.43,28.16c-3.94-2.29-5.52-7.14-11.16-7.89
	c3.91,5.42,6.31,10.45,8.07,15.79C502.77,367.66,502.5,367.85,502.22,368.04z M535.63,344.69c0.58-5.02,0.77-10.11,0.04-15.01
	c-0.27-0.1-0.15-0.05-0.03-0.01C533.02,334.66,536.5,339.62,535.63,344.69z"/>
<path class="st0" d="M726.83,160.59c2.92,2.83,6.15,5.41,8.72,8.54c10.85,13.21,17.5,28.1,17.49,45.55c0,2.74-0.51,4.04-3.66,4.58
	c-14,2.42-27.79,1.17-41.52-1.76c-22.2-4.74-42.85-13.49-62.94-23.91c-9.74-5.05-19.1-10.65-28.48-16.27
	c-2.64-1.58-2.95-2.76-1.06-5.3c4.59-6.16,9.39-12.12,15.52-17.61c-6.44-1.99-12.61-1.42-18.73-1.35
	c-6.18,0.07-12.08,2.17-18.33,2.4c4.75-3.97,10.48-5.77,16.28-7.08c10.12-2.29,20.37-3.56,30.77-2.08
	c4.79,0.68,9.33-0.66,13.92-1.57c3.11-0.62,5.03,0.05,6.74,3.15c6.44,11.67,9.79,24.01,9.45,37.35c-0.03,1.36,0,2.71,0,5.32
	c6.43-15.75,1.51-29.07-4.23-42.25c-2.05-4.7-2.23-4.62,2.97-4.93c12.75-0.76,25.33,0.33,37.83,3.01c3.47,0.75,5.85,2.52,7.95,5.23
	c12.06,15.55,17.85,33.15,17.92,52.75C739.34,188.63,730.93,175.12,726.83,160.59z"/>
<path class="st0" d="M792.39,347.34c-1.6,1.74-3.09,2.23-5.56,1c-8.69-4.29-17.55-8.26-26.38-12.24c-4.02-1.81-5.8-5.53-7.19-9.1
	c-3.03-7.73-9.98-11.01-16.15-15.03c-3.28-2.13-6.97-1.08-9.42,2.5c-3.65,5.3-7.34,10.56-11.03,15.83
	c-12.3,17.55-25.6,34.37-37.54,52.19c-1.75,2.61-1.7,3.95,0.31,6.3c2.51,2.93,5.99,5.83,3.63,10.73c-0.42,0.87,0.81,2.55,1.32,3.84
	c0.93,2.34,1.39,4.77-1.03,6.33c-1.73,1.12-4.06,1.95-3.96-1.76c0.11-3.97-2.05-7.03-4.69-9.4c-6.85-6.16-13.84-12.2-22.55-15.73
	c-3.56-1.45-7.18-2.43-10.97-1.43c-1.49,0.39-2.71,1.02-3.29-0.98c-0.48-1.66-0.12-3.11,1.29-4.2c1.21-0.94,2.67-0.78,4.07-0.83
	c2.39-0.09,4.49,0.06,6.96-1.46c3.38-2.09,7.53-0.15,10.63,1.81c3.7,2.34,5.13,0.8,7.44-1.98c11.4-13.72,21.2-28.67,32.4-42.51
	c6.38-7.89,12.3-16.1,18.52-24.09c6.38-8.18,17.01-9.67,25.57-3.76c0.39,0.27,0.78,0.54,1.13,0.85c6.3,5.44,13.25,9.29,21.88,9.37
	c3.44,0.03,5.94,1.9,8.41,4.35c6.74,6.72,12.62,14.34,20.38,20c2.39,1.75,0.54,3.23-0.12,4.82
	C794.5,343.77,793.28,345.41,792.39,347.34z M765.68,323.23c-0.73,1.46-3.07,2.04-2.32,4.3c-2.87-0.34-1.63,2.9-3.19,3.67l0.12,0.07
	l-0.04-0.16c1.26-1.01,2.81-1.77,3.01-3.66c0.91-1.35,3.37-1.82,2.38-4.23c0.26-0.21,0.7,0.81,0.85-0.13
	C766.22,323.14,765.95,323.19,765.68,323.23z M673.7,389.61c0.78,1.39,1.83,2.44,3.9,3c-1.35-1.43-2.38-2.51-3.41-3.6
	c-5.39-3.6-9.86-8.84-16.84-9.61c3.18,1.62,6.04,3.73,9.04,5.61C668.82,386.54,670.41,389.45,673.7,389.61z"/>
<linearGradient id="SVGID_1_" gradientUnits="userSpaceOnUse" x1="647.7277" y1="259.3255" x2="687.5347" y2="259.3255">
	<stop  offset="0" style="stop-color:#FFEF26"/>
	<stop  offset="0.0595" style="stop-color:#FFE000"/>
	<stop  offset="0.1303" style="stop-color:#FFD300"/>
	<stop  offset="0.2032" style="stop-color:#FECB00"/>
	<stop  offset="0.2809" style="stop-color:#FDC800"/>
	<stop  offset="0.6685" style="stop-color:#F18F34"/>
	<stop  offset="0.8876" style="stop-color:#E95F32"/>
	<stop  offset="1" style="stop-color:#E3312D"/>
</linearGradient>
<path class="st1" d="M687.53,290.97c-6.06-0.65-11.14-1.3-16.24-1.71c-1.89-0.15-2.72-1.12-3.41-2.65
	c-6.51-14.39-13.05-28.77-19.6-43.14c-0.62-1.35-0.83-2.51-0.01-3.96c2-3.54,4-7.04,6.69-10.15c2.1-2.43,3.24-2.21,4.51,0.71
	c4.01,9.17,7.71,18.51,12.38,27.33C677.5,268.06,682.08,279.16,687.53,290.97z"/>
<linearGradient id="SVGID_00000029744335696604862260000002910199638559432627_" gradientUnits="userSpaceOnUse" x1="792.3891" y1="361.4793" x2="847.3259" y2="361.4793">
	<stop  offset="0" style="stop-color:#FFEF26"/>
	<stop  offset="0.0595" style="stop-color:#FFE000"/>
	<stop  offset="0.1303" style="stop-color:#FFD300"/>
	<stop  offset="0.2032" style="stop-color:#FECB00"/>
	<stop  offset="0.2809" style="stop-color:#FDC800"/>
	<stop  offset="0.6685" style="stop-color:#F18F34"/>
	<stop  offset="0.8876" style="stop-color:#E95F32"/>
	<stop  offset="1" style="stop-color:#E3312D"/>
</linearGradient>
<path style="fill:url(#SVGID_00000029744335696604862260000002910199638559432627_);" d="M792.39,347.34
	c0.9-1.93,2.11-3.57,4.04-4.59c6.24-0.82,11.64,1.67,17.01,4.32c14.71,7.26,25.74,18.3,33.89,33.3c-6.12-0.17-11.39-2.36-16.83-3.7
	c-15.08-3.72-26.42-12.95-36.02-24.65C793.43,350.74,793.07,348.91,792.39,347.34z M796.13,345.46
	c3.55,11.66,15.3,18.21,27.82,19.21C817.46,354.2,809.58,346.22,796.13,345.46z"/>
<path class="st0" d="M603.56,369.83c-1.66,0.36-2.72,0.58-3.77,0.81c-7.64,1.73-7.44,1.57-12.42-4.82
	c-10.28-13.18-18.36-27.42-22.28-43.82c-0.1-0.44-0.41-0.77,0.9-1.69C575.09,339.18,588.88,354.46,603.56,369.83z"/>
<linearGradient id="SVGID_00000137846558024917917970000003461837536881496706_" gradientUnits="userSpaceOnUse" x1="641.976" y1="267.2175" x2="664.1398" y2="267.2175">
	<stop  offset="0" style="stop-color:#FFEF26"/>
	<stop  offset="0.0595" style="stop-color:#FFE000"/>
	<stop  offset="0.1303" style="stop-color:#FFD300"/>
	<stop  offset="0.2032" style="stop-color:#FECB00"/>
	<stop  offset="0.2809" style="stop-color:#FDC800"/>
	<stop  offset="0.6685" style="stop-color:#F18F34"/>
	<stop  offset="0.8876" style="stop-color:#E95F32"/>
	<stop  offset="1" style="stop-color:#E3312D"/>
</linearGradient>
<path style="fill:url(#SVGID_00000137846558024917917970000003461837536881496706_);" d="M664.14,287.35
	c-4.71,0.97-7.52-0.28-9.36-4.82c-3.47-8.52-7.02-17.09-11.63-25.01c-2.25-3.87-0.78-6.1,0.57-8.99c0.37-0.8,0.68-2.01,1.85-1.69
	c0.57,0.15,1.06,1.05,1.35,1.71C652.66,261.44,658.38,274.35,664.14,287.35z"/>
<path class="st4" d="M632.92,288.55c27.37,3.48,54.29,6.91,81.7,10.4c-2.22,2.66-4.73,2.15-6.99,1.87
	c-22.7-2.82-45.4-5.69-68.08-8.66C637.23,291.86,634.53,291.75,632.92,288.55z"/>
<path class="st4" d="M741.42,245.95c-4.65,18.94-13.92,35.8-24.72,51.94C723.59,279.99,731.84,262.72,741.42,245.95z"/>
<path class="st5" d="M694.54,291.04c-3.17-0.04-3.79-2.09-4.34-3.58c-4.55-12.33-10.39-24.13-16.15-35.87
	c-3.91-7.98-7.68-16.06-11.59-24.05c-0.39-0.8-2.11-2.27,0.06-3.02c1.47-0.51,1.64,1.05,2.09,1.98
	c8.89,18.54,18.09,36.93,25.96,55.94C691.71,285.19,692.12,288.22,694.54,291.04z"/>
<linearGradient id="SVGID_00000051379029082950866300000010047000235982156183_" gradientUnits="userSpaceOnUse" x1="716.697" y1="249.1154" x2="732.1796" y2="249.1154">
	<stop  offset="0" style="stop-color:#FFEF26"/>
	<stop  offset="0.0595" style="stop-color:#FFE000"/>
	<stop  offset="0.1303" style="stop-color:#FFD300"/>
	<stop  offset="0.2032" style="stop-color:#FECB00"/>
	<stop  offset="0.2809" style="stop-color:#FDC800"/>
	<stop  offset="0.6685" style="stop-color:#F18F34"/>
	<stop  offset="0.8876" style="stop-color:#E95F32"/>
	<stop  offset="1" style="stop-color:#E3312D"/>
</linearGradient>
<path style="fill:url(#SVGID_00000051379029082950866300000010047000235982156183_);" d="M727.3,260.63
	c-3.48-7.48-6.89-14.8-10.6-22.77c4.35,0.41,8.93-1.63,11.43,1.58C733.38,246.19,733.95,253.57,727.3,260.63z"/>
<path class="st7" d="M725.32,265.72c-1.37,0.11-2.01-0.36-2.33-1.09c-3.68-8.23-7.32-16.47-11-24.7c-0.38-0.84-1.18-1.77-0.26-2.5
	c0.95-0.76,1.84,0.09,2.19,0.93C717.77,247.4,722.66,256.04,725.32,265.72z"/>
<path class="st8" d="M737.41,234.84c4.2-0.73,8.26-0.97,12.47-1.81c-2.51,6.06-3.52,6.44-8.08,3.72
	C740.44,235.93,738.88,235.47,737.41,234.84z"/>
<path class="st8" d="M702.52,231.44c3.07,0.53,6.13,1.05,9.2,1.58c-0.01,0.06-0.03,0.13-0.04,0.19c-2.98-0.53-5.95-1.05-8.93-1.58
	C702.67,231.57,702.59,231.51,702.52,231.44z"/>
<path class="st9" d="M685.06,225.49c-1.12-0.71-2.8,0.38-3.49-1.3c1.06,0.44,2.22,0.93,3.38,1.41L685.06,225.49z"/>
<path class="st9" d="M687.28,226.26c0.34,0.23,0.69,0.46,1.03,0.69c-0.11,0.08-0.21,0.23-0.33,0.24c-0.7,0.05-0.49-0.55-0.62-0.91
	C687.36,226.27,687.28,226.26,687.28,226.26z"/>
<path class="st10" d="M684.95,225.6c0.77,0.22,1.53,0.44,2.31,0.66c0.01-0.01,0.09,0.01,0.1,0.01c-0.7-0.44-1.9,0.57-2.3-0.78
	C685.06,225.49,684.95,225.6,684.95,225.6z"/>
<path class="st9" d="M725.6,159.61c0.32,0.24,0.66,0.49,0.99,0.75c-0.2,0.2-0.46,0.6-0.58,0.56c-0.42-0.13-0.79-0.42-1.18-0.65
	C725.05,160.08,725.27,159.89,725.6,159.61z"/>
<path class="st9" d="M503.04,367.46c0.02,0.36,0.05,0.72,0.07,1.08c-0.3-0.17-0.59-0.33-0.89-0.5
	C502.5,367.85,502.77,367.66,503.04,367.46z"/>
<path class="st9" d="M359.7,415.59c0.1,0.14,0.21,0.27,0.31,0.41c-0.11-0.12-0.22-0.25-0.32-0.37
	C359.69,415.63,359.7,415.59,359.7,415.59z"/>
<path class="st11" d="M588.34,197.85c2.34-6.53,6.08-11.95,12.05-17.27C597.45,188.07,593.71,193.57,588.34,197.85z"/>
<path class="st11" d="M578.69,190.71c4.18-5.23,7.31-10.92,12.57-15.07C590.61,181.22,583.68,189.67,578.69,190.71z"/>
<path class="st11" d="M584.83,168.66c-2.99,6.42-7.74,9.86-12.35,13.45C574.82,176.52,578.14,171.81,584.83,168.66z"/>
<path class="st11" d="M478.29,597.22c4.9,1.28,10.15,0.11,14.57,1.41C488.23,600.22,483.36,598.04,478.29,597.22z"/>
<path class="st11" d="M587.8,509.64c-2.2-3.79-6.84,0.17-9.31-2.77C581.67,507.54,585.78,505.28,587.8,509.64z"/>
<path class="st11" d="M535.63,344.69c0.87-5.06-2.61-10.02,0.01-15.02c-0.12-0.04-0.24-0.08,0.03,0.01
	C536.41,334.57,536.21,339.66,535.63,344.69z"/>
<path class="st11" d="M673.7,389.61c-3.28-0.16-4.87-3.07-7.31-4.6c-3.01-1.88-5.87-4-9.04-5.61c6.99,0.76,11.45,6.01,16.84,9.61
	C674.01,389.2,673.84,389.4,673.7,389.61z"/>
<path class="st11" d="M760.16,331.22c1.57-0.79,0.34-4.02,3.2-3.69l-0.09-0.07c-0.21,1.88-1.76,2.64-3.02,3.65L760.16,331.22z"/>
<path class="st11" d="M763.36,327.53c-0.75-2.26,1.59-2.84,2.32-4.3l-0.05-0.02c1,2.42-1.46,2.89-2.37,4.24
	C763.27,327.46,763.36,327.53,763.36,327.53z"/>
<path class="st11" d="M674.19,389.01c1.03,1.09,2.06,2.17,3.41,3.6c-2.07-0.55-3.12-1.6-3.9-3
	C673.84,389.4,674.01,389.2,674.19,389.01z"/>
<path class="st11" d="M760.25,331.12l0.04,0.16c0,0-0.12-0.07-0.13-0.06C760.16,331.22,760.25,331.12,760.25,331.12z"/>
<path class="st11" d="M765.68,323.23c0.27-0.05,0.54-0.09,0.81-0.14c-0.15,0.93-0.59-0.08-0.86,0.12
	C765.63,323.22,765.68,323.23,765.68,323.23z"/>
<path class="st11" d="M796.13,345.46c13.44,0.76,21.32,8.74,27.82,19.21C811.44,363.67,799.68,357.12,796.13,345.46z"/>
<path class="st12" d="M509.77,42.37c1.36,5.49,2.41,11.06,4.14,16.45c8.43,26.2,16.97,52.37,25.75,78.48
	c0.7,2.07,3.32,4.45,5.54,5.17c8.48,2.75,17.17,4.88,27.37,7.68c-4.35,4.74-7.93,8.66-11.52,12.57
	c-8.47,9.21-16.72,18.62-25.61,27.45c-1.76,1.75-6.02,2.1-9.03,1.78c-27.68-2.96-55.02-2.61-81.9,2.97
	c-47.15,9.78-86.02,31.74-116.26,66.59c-39.54,45.57-55.82,98.72-48.17,158.43c6.08,47.44,28.65,88.24,68.09,120.79
	c34.8,28.73,75.21,45.65,119.33,53.67c27.55,5,55.53,7.24,84.6,10.89c5.63,47.19,11.48,96.29,17.37,145.65
	c-25.88,4.78-51.4,9.49-77.78,14.35c-2.68-8.01-5.4-15.77-7.87-23.59c-8.23-26.03-16.55-52.04-24.44-78.14
	c-1.8-5.94-4.86-9.05-11.19-11.18c-22.73-7.67-45.3-15.83-67.74-24.29c-4.68-1.76-7.5-1.14-11.05,1.38
	c-30.05,21.3-60.22,42.44-90.65,63.85c-11.02-8.96-22.03-17.82-32.94-26.8c-8.72-7.17-17.05-14.8-26.07-21.6
	c-5.13-3.87-6.44-7.24-3.37-12.51c9.43-16.19,18.56-32.55,27.83-48.83c7.27-12.75,14.72-25.4,21.73-38.28c1.09-2,1.15-5.38,0.11-7.5
	c-11.26-23.06-22.71-46.05-34.51-68.89c-1.15-2.23-4.9-4.33-7.66-4.75c-38.26-5.83-76.56-11.35-115.4-17.02
	c-1.8-27.88-3.6-55.73-5.42-84c39-5.16,77.92-10.31,115.9-15.33c6.24-17.53,11.61-32.45,16.87-47.41c2.98-8.47,6.07-16.92,8.5-25.56
	c0.71-2.53,0.3-6.28-1.26-8.46c-20.82-29.17-41.82-58.23-63.15-87.08c-2.54-3.44-1.9-5.3,0.27-7.58
	c17.12-17.96,34.28-35.89,51.97-54.38c13.26,8.09,26.44,16.17,39.66,24.2c18.03,10.95,36.02,21.98,54.24,32.63
	c2.1,1.23,6.06,1.19,8.35,0.2c22.78-9.87,45.69-19.99,68.54-30.64c2.7-1.26,4.84-5.19,5.44-8.27c6.09-31.34,11.81-62.77,17.64-94.16
	c0.2-1.08,0.52-2.13,0.91-3.74c27.27,1.35,54.44,2.69,81.6,4.04C508.96,41.83,509.37,42.1,509.77,42.37z"/>
<g>
	<g>
		<path class="st13" d="M876.73,277.33l-0.13,83.56l-10.79-0.02l0.13-83.56L876.73,277.33z"/>
		<path class="st13" d="M895.29,360.92l0.13-83.56l11.81,0.02l26.56,42.27c6.06,9.81,10.88,18.6,14.79,27.23l0.27-0.13
			c-0.96-11.16-1.13-21.35-1.11-34.29l0.06-35.02l10.11,0.02l-0.13,83.56l-10.91-0.02l-26.36-42.4c-5.71-9.37-11.29-18.91-15.42-28
			l-0.37,0.13c0.62,10.59,0.76,20.66,0.73,34.47l-0.06,35.73L895.29,360.92z"/>
		<path class="st13" d="M976.58,278.64c6.59-1.07,14.39-1.77,22.85-1.76c15.38,0.02,26.4,3.71,33.67,10.55
			c7.42,6.78,11.75,16.46,11.72,29.92c-0.02,13.7-4.3,24.78-12.01,32.49c-7.87,7.77-20.73,12.01-36.83,11.99
			c-7.7-0.01-14.07-0.32-19.53-0.96L976.58,278.64z M987.25,352.58c2.72,0.45,6.7,0.52,10.8,0.52
			c23.01,0.09,35.43-12.77,35.46-35.36c0.16-19.74-10.92-32.21-33.57-32.24c-5.55-0.01-9.72,0.5-12.59,1.08L987.25,352.58z"/>
		<path class="st13" d="M1069.48,277.64l-0.08,49.52c-0.03,18.64,8.19,26.56,19.4,26.58c12.24,0.02,20.23-8.16,20.26-26.52
			l0.08-49.52l10.79,0.02l-0.08,48.75c-0.04,25.69-13.49,36.15-31.52,36.12c-16.97-0.03-29.77-9.78-29.73-35.75l0.08-49.22
			L1069.48,277.64z"/>
		<path class="st13" d="M1137.03,348.16c4.79,3.03,11.8,5.43,19.17,5.45c10.98,0.02,17.45-5.74,17.46-14.2
			c0.01-7.75-4.49-12.32-15.7-16.56c-13.56-4.86-21.96-12.05-21.95-23.74c0.02-13.01,10.79-22.64,26.99-22.62
			c8.44,0.01,14.71,1.99,18.33,4.07l-3.01,8.84c-2.65-1.58-8.21-3.98-15.69-3.99c-11.42-0.02-15.74,6.78-15.75,12.47
			c-0.01,7.76,5.04,11.59,16.51,16.07c14.09,5.58,21.19,12.4,21.17,24.65c-0.02,12.82-9.43,24.08-29.13,24.05
			c-8.04-0.01-16.8-2.47-21.23-5.49L1137.03,348.16z"/>
		<path class="st13" d="M1215.2,287l-25.33-0.04l0.01-9.12l61.57,0.1l-0.01,9.12l-25.45-0.04l-0.12,74.44l-10.79-0.02L1215.2,287z"
			/>
		<path class="st13" d="M1260.65,279.1c5.45-1.09,13.27-1.78,20.65-1.76c11.4,0.02,18.91,2.21,24.08,6.92
			c4.1,3.66,6.51,9.36,6.5,15.89c-0.02,10.98-7,18.27-15.7,21.27v0.3c6.33,2.25,10.16,8.28,12.16,16.94
			c2.71,11.68,4.67,19.67,6.36,22.94l-11.14-0.02c-1.3-2.42-3.17-9.55-5.43-20.01c-2.45-11.44-6.94-15.89-16.66-16.23l-10.16-0.02
			l-0.06,36.21l-10.73-0.02L1260.65,279.1z M1271.31,317.15l10.97,0.02c11.49,0.02,18.78-6.26,18.8-15.84
			c0.02-10.85-7.76-15.58-19.09-15.62c-5.21-0.01-8.81,0.46-10.63,0.93L1271.31,317.15z"/>
		<path class="st13" d="M1337.8,278.08l-0.13,83.56l-10.79-0.02l0.13-83.56L1337.8,278.08z"/>
		<path class="st13" d="M1369.89,335.42l-8.63,26.25l-11.13-0.02l28.41-83.51l12.91,0.02l28.26,83.61l-11.48-0.02l-8.86-26.28
			L1369.89,335.42z M1397.2,327.03l-8.19-24.06c-1.79-5.47-3.04-10.45-4.26-15.25l-0.29,0c-1.2,4.88-2.5,9.98-4.15,15.09
			l-8.23,24.18L1397.2,327.03z"/>
	</g>
</g>
<g>
	<g>
		<path class="st14" d="M927.81,426.89c-0.58-11.94-1.25-26.44-1.19-37.07h-0.3c-2.57,9.97-5.66,20.8-9.38,32.58l-13.16,41.69h-7.27
			l-12.14-40.92c-3.55-12.14-6.45-23.17-8.54-33.34h-0.26c-0.26,10.71-0.74,25.02-1.46,37.91l-1.98,36.89h-9.15l5.19-85.94h12.3
			l12.69,41.6c3.07,10.52,5.57,19.98,7.51,28.95h0.29c1.96-8.7,4.56-18.17,7.89-28.94l13.3-41.6h12.31l4.62,85.94h-9.46
			L927.81,426.89z"/>
		<path class="st14" d="M992.4,424.33h-28.9v31.04h32.32v9.25h-42v-85.94h40.3v9.25H963.5v27.22h28.9V424.33z"/>
		<path class="st14" d="M1022.46,388.06h-22.71v-9.38h55.2v9.38h-22.81v76.56h-9.68V388.06z"/>
		<path class="st14" d="M1075.29,437.61l-7.7,27.01h-9.98l25.35-85.94h11.58l25.46,85.94h-10.3l-7.98-27.01H1075.29z
			 M1099.77,428.94l-7.38-24.73c-1.62-5.63-2.74-10.74-3.84-15.68h-0.26c-1.07,5.02-2.23,10.27-3.7,15.53l-7.34,24.88H1099.77z"/>
		<path class="st14" d="M1130.88,378.68h9.68v76.57h31.87v9.37h-41.55V378.68z"/>
		<path class="st14" d="M1245.98,426.89c-0.58-11.94-1.25-26.44-1.19-37.07h-0.3c-2.57,9.97-5.66,20.8-9.38,32.58l-13.16,41.69
			h-7.27l-12.14-40.92c-3.55-12.14-6.45-23.17-8.54-33.34h-0.26c-0.26,10.71-0.74,25.02-1.46,37.91l-1.98,36.89h-9.15l5.19-85.94
			h12.3l12.69,41.6c3.07,10.52,5.57,19.98,7.51,28.95h0.29c1.96-8.7,4.56-18.17,7.89-28.94l13.3-41.6h12.31l4.62,85.94h-9.46
			L1245.98,426.89z"/>
		<path class="st14" d="M1310.57,424.33h-28.9v31.04H1314v9.25h-42v-85.94h40.3v9.25h-30.62v27.22h28.9V424.33z"/>
		<path class="st14" d="M1378.51,461.86c-3.48,2.02-10.62,4.1-19.7,4.1c-21,0-36.74-15.32-36.74-43.53
			c0-26.97,15.77-45.09,38.91-45.09c9.21,0,15.15,2.25,17.69,3.78l-2.37,9.03c-3.62-1.99-8.8-3.54-15-3.54
			c-17.51,0-29.08,12.89-29.08,35.46c0,21.03,10.51,34.46,28.56,34.46c5.92,0,11.88-1.37,15.79-3.52L1378.51,461.86z"/>
		<path class="st14" d="M1402.65,437.61l-7.7,27.01h-9.98l25.35-85.94h11.58l25.46,85.94h-10.3l-7.98-27.01H1402.65z
			 M1427.13,428.94l-7.38-24.73c-1.62-5.63-2.74-10.74-3.84-15.68h-0.26c-1.07,5.02-2.23,10.27-3.7,15.53l-7.34,24.88H1427.13z"/>
		<path class="st14" d="M1458.24,464.62v-85.94h10.58l23.88,43.43c5.45,10.08,9.78,19.11,13.3,27.98l0.25-0.13
			c-0.87-11.47-1.05-21.95-1.05-35.27v-36.02h9.07v85.94h-9.78l-23.69-43.56c-5.13-9.63-10.15-19.43-13.87-28.77l-0.33,0.13
			c0.57,10.89,0.71,21.25,0.71,35.45v36.75H1458.24z"/>
		<path class="st14" d="M1540.68,378.68v85.94h-9.68v-85.94H1540.68z"/>
		<path class="st14" d="M1609.54,461.86c-3.48,2.02-10.62,4.1-19.7,4.1c-21,0-36.74-15.32-36.74-43.53
			c0-26.97,15.77-45.09,38.91-45.09c9.21,0,15.15,2.25,17.69,3.78l-2.37,9.03c-3.62-1.99-8.8-3.54-15-3.54
			c-17.51,0-29.08,12.89-29.08,35.46c0,21.03,10.51,34.46,28.56,34.46c5.92,0,11.88-1.37,15.79-3.52L1609.54,461.86z"/>
		<path class="st14" d="M1633.68,437.61l-7.7,27.01H1616l25.35-85.94h11.58l25.46,85.94h-10.3l-7.98-27.01H1633.68z M1658.16,428.94
			l-7.38-24.73c-1.62-5.63-2.74-10.74-3.84-15.68h-0.26c-1.07,5.02-2.23,10.27-3.7,15.53l-7.34,24.88H1658.16z"/>
	</g>
</g>
<g>
	<g>
		<path class="st15" d="M848.87,630.53l2.54-15.11l4.84,1.99c4.1,1.75,7.19,2.87,9.29,3.35c2.1,0.48,4.35,0.72,6.76,0.72
			c7.48,0,13.13-2.59,16.98-7.78c2.05-2.77,3.57-5.79,4.57-9.05s1.96-7.63,2.88-13.12l13.67-80.52h-34.1l2.23-13.39h49.25
			l-14.33,84.41c-1.64,9.71-3.29,17.38-4.95,23.02c-1.66,5.64-4.49,10.93-8.48,15.88c-3.58,4.52-7.88,7.97-12.9,10.36
			c-5.02,2.38-10.42,3.57-16.2,3.57C865.08,634.87,857.73,633.42,848.87,630.53z"/>
		<path class="st15" d="M916.27,631.52L939,497.63h31.79c8.45,0,14.52,0.8,18.23,2.4c3.71,1.6,6.59,4.25,8.64,7.96
			c2.05,3.71,3.07,8.16,3.07,13.34c0,5.13-1.04,10.16-3.11,15.11c-2.07,4.95-4.98,9.5-8.72,13.66c-3.74,4.16-9.42,8.08-17.05,11.76
			c5.43,1.87,9.68,4.27,12.75,7.19c3.07,2.93,5.35,6.21,6.84,9.86c1.48,3.65,2.23,7.77,2.23,12.35c0,7.06-1.75,13.8-5.26,20.22
			c-3.51,6.42-8.1,11.37-13.78,14.84c-5.68,3.47-15.23,5.2-28.64,5.2H916.27z M933.66,618.13h13.6c8.86,0,15-0.98,18.41-2.94
			c3.41-1.96,6.26-5.19,8.57-9.68c2.31-4.49,3.46-9.09,3.46-13.8c0-6.45-2.4-12.03-7.19-16.74c-4.79-4.7-12.39-7.06-22.79-7.06
			h-5.54L933.66,618.13z M944.08,556.71h5.29c8.65,0,15.3-1.28,19.95-3.84c4.66-2.56,8.35-6.21,11.09-10.95
			c2.74-4.73,4.11-9.57,4.11-14.52c0-3.56-0.78-6.6-2.35-9.14c-1.56-2.53-3.9-4.37-7-5.52c-3.1-1.15-8.55-1.72-16.35-1.72h-7
			L944.08,556.71z"/>
		<path class="st15" d="M1052.09,628.45l2.99-17.63c12.08,7.11,22.88,10.67,32.4,10.67c4.86,0,9.46-1.11,13.78-3.34
			c4.32-2.23,7.78-5.63,10.36-10.21c2.58-4.58,3.88-9.13,3.88-13.65c0-6.75-3.41-12.47-10.23-17.17l-19.79-13.61
			c-5.12-3.56-9.11-7.42-11.98-11.58c-2.92-4.16-4.38-9.41-4.38-15.74c0-7.3,1.75-14.28,5.26-20.94
			c3.51-6.66,8.18-11.82,14.01-15.47c5.83-3.65,13.1-5.47,21.8-5.47c8.65,0,18.2,1.81,28.64,5.43l-2.61,15.47
			c-10.24-5-19.5-7.51-27.79-7.51c-8.5,0-14.69,2.32-18.58,6.97c-3.89,4.65-5.83,9.74-5.83,15.29c0,2.96,0.82,5.88,2.46,8.78
			c1.59,2.96,4.71,6,9.37,9.14l18.43,12.58c6.65,4.52,11.18,8.91,13.59,13.16c2.4,4.25,3.61,9.09,3.61,14.52
			c0,7.96-2.07,15.74-6.22,23.34c-4.15,7.6-9.76,13.41-16.85,17.42c-7.09,4.01-15.39,6.02-24.91,6.02c-3.33,0-7.05-0.29-11.17-0.86
			C1068.2,633.44,1061.45,631.58,1052.09,628.45z"/>
		<path class="st15" d="M1135.19,621.15c0-9.45,6.29-17.6,14.15-17.6c6.13,0,10.06,5.19,10.06,12.6c0,9.26-6.29,17.6-14.31,17.6
			C1139.12,633.75,1135.19,628.56,1135.19,621.15z"/>
		<path class="st15" d="M1176.53,631.52l61.61-133.89h15.09l16.13,133.89h-16.05l-4.55-38h-41.72l-17.46,38H1176.53z
			 M1213.19,580.14h33.97l-7.03-58.62L1213.19,580.14z"/>
		<path class="st15" d="M1271.75,621.15c0-9.45,6.29-17.6,14.15-17.6c6.13,0,10.06,5.19,10.06,12.6c0,9.26-6.29,17.6-14.31,17.6
			C1275.69,633.75,1271.75,628.56,1271.75,621.15z"/>
		<path class="st15" d="M1325.21,628.45l2.99-17.63c12.08,7.11,22.88,10.67,32.4,10.67c4.86,0,9.46-1.11,13.78-3.34
			c4.32-2.23,7.78-5.63,10.36-10.21c2.58-4.58,3.88-9.13,3.88-13.65c0-6.75-3.41-12.47-10.23-17.17l-19.79-13.61
			c-5.12-3.56-9.11-7.42-11.98-11.58c-2.92-4.16-4.38-9.41-4.38-15.74c0-7.3,1.75-14.28,5.26-20.94
			c3.51-6.66,8.18-11.82,14.01-15.47c5.83-3.65,13.1-5.47,21.8-5.47c8.65,0,18.2,1.81,28.64,5.43l-2.61,15.47
			c-10.24-5-19.5-7.51-27.79-7.51c-8.5,0-14.69,2.32-18.58,6.97c-3.89,4.65-5.83,9.74-5.83,15.29c0,2.96,0.82,5.88,2.46,8.78
			c1.59,2.96,4.71,6,9.37,9.14l18.43,12.58c6.65,4.52,11.18,8.91,13.59,13.16c2.4,4.25,3.61,9.09,3.61,14.52
			c0,7.96-2.07,15.74-6.22,23.34c-4.15,7.6-9.76,13.41-16.85,17.42c-7.09,4.01-15.39,6.02-24.91,6.02c-3.33,0-7.05-0.29-11.17-0.86
			C1341.32,633.44,1334.58,631.58,1325.21,628.45z"/>
		<path class="st15" d="M1408.32,621.15c0-9.45,6.29-17.6,14.15-17.6c6.13,0,10.06,5.19,10.06,12.6c0,9.26-6.29,17.6-14.31,17.6
			C1412.25,633.75,1408.32,628.56,1408.32,621.15z"/>
	</g>
</g>
<g>
	<g>
	</g>
</g>
<g>
	<g>
	</g>
</g>
<rect x="1640.73" y="610.91" class="st16" width="15.71" height="0"/>
<g>
	<g>
	</g>
</g>
<g>
	<g>
	</g>
</g>
<rect x="1542.98" y="635.35" class="st16" width="15.71" height="0"/>
<text transform="matrix(0.9054 0 0 1 847.3262 716.6563)" class="st17 st18 st19">NIT 901.652.203-4</text>
<g>
	<g>
		<path d="M1954.62,836.63h5.23v36.86h20.41v4.47h-25.64V836.63z"/>
		<path d="M1987.76,862.72c0-10.27,7.06-16.13,15.12-16.13s15.12,5.86,15.12,16.13c0,10.14-7.06,16-15.12,16
			S1987.76,872.86,1987.76,862.72z M2012.65,862.72c0-7.06-3.91-11.78-9.77-11.78s-9.77,4.72-9.77,11.78
			c0,6.99,3.91,11.66,9.77,11.66S2012.65,869.71,2012.65,862.72z"/>
		<path d="M2030.92,847.34h4.35l0.5,7.25h0.13c3.21-4.98,8-8,13.67-8c2.27,0,4.16,0.32,6.05,1.26l-1.2,4.47
			c-2.14-0.69-3.28-1.01-5.67-1.01c-4.6,0-8.95,2.33-12.6,8.76v17.89h-5.23V847.34z"/>
		<path d="M2063.86,862.59c0-9.95,7.43-16,15.62-16c8.82,0,13.99,5.73,13.99,14.37c0,1.2-0.13,2.33-0.25,3.15h-25.89v-4.03h22.81
			l-1.32,1.45c0-7.25-3.59-10.84-9.2-10.84c-5.67,0-10.58,4.28-10.58,11.91c0,7.94,5.17,11.97,11.97,11.97
			c3.65,0,6.55-1.13,9.33-2.9l1.89,3.4c-3.02,2.02-6.93,3.65-11.84,3.65C2071.17,878.72,2063.86,872.8,2063.86,862.59z"/>
		<path d="M2101.03,847.34h4.16l0.44,4.03h0.13c1.57-2.83,3.46-4.79,6.99-4.79c3.02,0,4.91,1.76,5.8,5.29
			c1.76-3.28,3.65-5.29,7.18-5.29c4.28,0,6.8,3.34,6.8,9.45v21.92h-5.17v-21.55c0-3.53-1.01-5.36-3.28-5.36
			c-2.14,0-3.28,1.58-4.92,4.72v22.18h-4.79v-21.55c0-3.53-0.88-5.36-3.15-5.36c-2.14,0-3.53,1.58-5.04,4.72v22.18h-5.17V847.34z"/>
		<path d="M2192.82,851.57h-14.18v-4.22h19.41v30.62h-5.23V851.57z M2190.75,836.89c0-2.39,1.76-4.03,4.16-4.03
			c2.39,0,4.16,1.64,4.16,4.03c0,2.46-1.76,4.03-4.16,4.03C2192.51,840.92,2190.75,839.34,2190.75,836.89z"/>
		<path d="M2216.64,847.34h4.28l0.44,3.91h0.19c2.83-2.71,6.87-4.66,10.58-4.66c8.25,0,12.66,6.11,12.66,15.62
			c0,10.4-6.55,16.51-13.92,16.51c-2.83,0-6.36-1.45-9.13-3.97h-0.13l0.25,5.8v10.33h-5.23V847.34z M2239.44,862.21
			c0-6.74-2.52-11.21-8.63-11.21c-2.71,0-5.86,1.39-8.95,4.54v15.25c2.83,2.58,6.05,3.53,8.13,3.53
			C2235.41,874.31,2239.44,869.77,2239.44,862.21z"/>
		<path d="M2253.05,873.93l2.39-3.46c3.53,2.52,7.69,4.16,13.29,4.16c5.17,0,7.69-2.14,7.69-4.73c0-2.33-1.2-3.97-9.51-5.67
			c-8-1.64-11.97-4.35-11.97-8.95c0-4.91,4.35-8.69,12.73-8.69c4.66,0,9.33,1.83,12.35,3.91l-2.52,3.34
			c-2.84-1.95-6.36-3.21-10.27-3.21c-5.17,0-7.06,2.08-7.06,4.41c0,2.65,2.65,3.78,8.95,5.1c10.14,2.21,12.6,4.73,12.6,9.45
			c0,4.98-4.85,9.14-13.61,9.14C2262.12,878.72,2256.77,876.51,2253.05,873.93z"/>
		<path d="M2291.23,866.37v-19.03h5.23v18.33c0,5.73,2.02,8.51,7.06,8.51c3.53,0,6.11-1.64,9.51-5.61v-21.23h5.23v30.62h-4.35
			l-0.44-5.36h-0.25c-3.09,3.59-6.68,6.11-11.4,6.11C2294.57,878.72,2291.23,874.44,2291.23,866.37z"/>
		<path d="M2327.83,847.34h4.16l0.44,4.03h0.13c1.57-2.83,3.46-4.79,6.99-4.79c3.02,0,4.91,1.76,5.8,5.29
			c1.76-3.28,3.65-5.29,7.18-5.29c4.28,0,6.8,3.34,6.8,9.45v21.92h-5.17v-21.55c0-3.53-1.01-5.36-3.28-5.36
			c-2.14,0-3.28,1.58-4.92,4.72v22.18h-4.79v-21.55c0-3.53-0.88-5.36-3.15-5.36c-2.14,0-3.53,1.58-5.04,4.72v22.18h-5.17V847.34z"/>
	</g>
</g>
</svg>
